<svg width="28" height="29" viewBox="0 0 28 29" fill="none" xmlns="http://www.w3.org/2000/svg">
<path d="M27.8947 7.33761C27.7729 6.52511 27.577 5.73938 27.2393 4.99691C26.4432 3.24764 25.2004 1.90651 23.4943 1.00579C22.2583 0.314462 20.9167 0.0161671 19.5167 0.00964508C15.9395 -0.00751805 12.3619 0.00861507 8.78433 3.35051e-05C7.60497 -0.0027126 6.4606 0.163083 5.36016 0.594221C3.84726 1.18669 2.60991 2.13959 1.64466 3.44673C1.03147 4.27743 0.576128 5.19154 0.288922 6.17979C0.128333 6.73244 0 7.30088 0 7.88443C0.00102941 12.3087 0.0027441 16.7331 0.00754803 21.1577C0.00789117 21.6173 0.118382 22.0629 0.222353 22.5078H0.227501C0.290981 22.8095 0.384314 23.1019 0.492402 23.391C0.99956 24.7489 1.76442 25.9308 2.87412 26.8754C4.40212 28.1761 6.14972 28.9707 8.17252 28.9837C12.6055 29.0122 17.0385 28.9944 21.4715 28.9954C21.534 28.9954 21.5964 28.9964 21.6585 28.992C23.2531 28.8712 24.078 27.4648 23.4995 26.0935C23.1532 25.2731 22.4488 24.9099 21.5824 24.9034C19.6776 24.889 17.7725 24.901 15.8677 24.901C13.3752 24.9006 10.883 24.8976 8.39041 24.8993C7.91517 24.8996 7.44198 24.8375 7.00894 24.6652C5.79011 24.1808 4.86879 23.3669 4.37913 22.1175C4.21271 21.6929 4.10222 21.2555 4.08643 20.8C4.06756 20.2632 4.06619 19.7256 4.05726 19.1884C4.0607 19.0841 4.06687 18.9797 4.06687 18.8754C4.06756 15.5018 4.07408 12.1285 4.06173 8.75494C4.05967 8.22117 4.12074 7.70319 4.26726 7.19756C4.47143 6.49284 4.84785 5.87497 5.36977 5.36488C6.28149 4.47412 7.39325 4.07422 8.66595 4.07662C12.145 4.08348 15.6241 4.0804 19.1032 4.07593C19.4672 4.07559 19.8272 4.11335 20.1892 4.13669C20.6281 4.24482 21.0574 4.36015 21.4722 4.56302C22.3208 4.97768 22.9484 5.60173 23.3855 6.42042C23.8385 7.26827 23.9473 8.1889 23.9219 9.1394C23.915 9.39753 23.8141 9.54754 23.6281 9.67969C22.6564 10.371 21.6815 11.0579 20.7139 11.7547C18.7333 13.181 16.7551 14.6107 14.7817 16.0469C14.6338 16.1547 14.5202 16.1663 14.3768 16.0743C14.0542 15.868 13.7461 15.6312 13.403 15.4674C13.0461 15.2972 12.7033 15.1015 12.3657 14.9028C11.9055 14.6323 11.4457 14.3584 10.9646 14.1328C10.3027 13.8222 9.63737 13.8853 9.0259 14.2894C8.51703 14.6258 8.02943 14.9948 7.52502 15.338C7.37129 15.4427 7.42036 15.5049 7.52776 15.5934C7.87639 15.8811 8.22227 16.1722 8.56884 16.4619C10.0955 17.7385 11.6214 19.0157 13.1497 20.2903C13.3381 20.4472 13.5279 20.6178 13.7616 20.6953C14.4705 20.9301 15.1434 20.8251 15.7469 20.3905C19.2699 17.8531 22.7919 15.3143 26.3067 12.766C27.3793 11.9881 27.9239 10.9007 27.9826 9.58942C28.0165 8.84007 28.0076 8.08936 27.8947 7.33761Z" fill="url(#paint0_linear_3_178)"/>
<path d="M27.8947 7.33761C27.7729 6.52511 27.577 5.73938 27.2393 4.99691C26.4432 3.24764 25.2004 1.90651 23.4943 1.00579C22.2583 0.314462 20.9167 0.0161671 19.5167 0.00964508C15.9395 -0.00751805 12.3619 0.00861507 8.78433 3.35051e-05C7.60497 -0.0027126 6.4606 0.163083 5.36016 0.594221C3.84726 1.18669 2.60991 2.13959 1.64466 3.44673C1.03147 4.27743 0.576128 5.19154 0.288922 6.17979C0.128333 6.73244 0 7.30088 0 7.88443C0.00102941 12.3087 0.0027441 16.7331 0.00754803 21.1577C0.00789117 21.6173 0.118382 22.0629 0.222353 22.5078H0.227501C0.290981 22.8095 0.384314 23.1019 0.492402 23.391C0.99956 24.7489 1.76442 25.9308 2.87412 26.8754C4.40212 28.1761 6.14972 28.9707 8.17252 28.9837C12.6055 29.0122 17.0385 28.9944 21.4715 28.9954C21.534 28.9954 21.5964 28.9964 21.6585 28.992C23.2531 28.8712 24.078 27.4648 23.4995 26.0935C23.1532 25.2731 22.4488 24.9099 21.5824 24.9034C19.6776 24.889 17.7725 24.901 15.8677 24.901C13.3752 24.9006 10.883 24.8976 8.39041 24.8993C7.91517 24.8996 7.44198 24.8375 7.00894 24.6652C5.79011 24.1808 4.86879 23.3669 4.37913 22.1175C4.21271 21.6929 4.10222 21.2555 4.08643 20.8C4.06756 20.2632 4.06619 19.7256 4.05726 19.1884C4.0607 19.0841 4.06687 18.9797 4.06687 18.8754C4.06756 15.5018 4.07408 12.1285 4.06173 8.75494C4.05967 8.22117 4.12074 7.70319 4.26726 7.19756C4.47143 6.49284 4.84785 5.87497 5.36977 5.36488C6.28149 4.47412 7.39325 4.07422 8.66595 4.07662C12.145 4.08348 15.6241 4.0804 19.1032 4.07593C19.4672 4.07559 19.8272 4.11335 20.1892 4.13669C20.6281 4.24482 21.0574 4.36015 21.4722 4.56302C22.3208 4.97768 22.9484 5.60173 23.3855 6.42042C23.8385 7.26827 23.9473 8.1889 23.9219 9.1394C23.915 9.39753 23.8141 9.54754 23.6281 9.67969C22.6564 10.371 21.6815 11.0579 20.7139 11.7547C18.7333 13.181 16.7551 14.6107 14.7817 16.0469C14.6338 16.1547 14.5202 16.1663 14.3768 16.0743C14.0542 15.868 13.7461 15.6312 13.403 15.4674C13.0461 15.2972 12.7033 15.1015 12.3657 14.9028C11.9055 14.6323 11.4457 14.3584 10.9646 14.1328C10.3027 13.8222 9.63737 13.8853 9.0259 14.2894C8.51703 14.6258 8.02943 14.9948 7.52502 15.338C7.37129 15.4427 7.42036 15.5049 7.52776 15.5934C7.87639 15.8811 8.22227 16.1722 8.56884 16.4619C10.0955 17.7385 11.6214 19.0157 13.1497 20.2903C13.3381 20.4472 13.5279 20.6178 13.7616 20.6953C14.4705 20.9301 15.1434 20.8251 15.7469 20.3905C19.2699 17.8531 22.7919 15.3143 26.3067 12.766C27.3793 11.9881 27.9239 10.9007 27.9826 9.58942C28.0165 8.84007 28.0076 8.08936 27.8947 7.33761Z" fill="url(#paint1_linear_3_178)"/>
<defs>
<linearGradient id="paint0_linear_3_178" x1="24.0436" y1="25.751" x2="3.94243" y2="3.2623" gradientUnits="userSpaceOnUse">
<stop stop-color="#83BD41"/>
<stop offset="1" stop-color="#4E9143"/>
</linearGradient>
<linearGradient id="paint1_linear_3_178" x1="24.0436" y1="25.751" x2="3.94243" y2="3.2623" gradientUnits="userSpaceOnUse">
<stop stop-color="#83BD41"/>
<stop offset="1" stop-color="#4E9143"/>
</linearGradient>
</defs>
</svg>
